<?xml version="1.0" encoding="UTF-8" standalone="no"?>
<svg
   xmlns:dc="http://purl.org/dc/elements/1.1/"
   xmlns:cc="http://creativecommons.org/ns#"
   xmlns:rdf="http://www.w3.org/1999/02/22-rdf-syntax-ns#"
   xmlns:svg="http://www.w3.org/2000/svg"
   xmlns="http://www.w3.org/2000/svg"
   xmlns:sodipodi="http://sodipodi.sourceforge.net/DTD/sodipodi-0.dtd"
   xmlns:inkscape="http://www.inkscape.org/namespaces/inkscape"
   sodipodi:docname="logo.svg"
   inkscape:version="1.0 (4035a4f, 2020-05-01)"
   id="svg8"
   version="1.1"
   viewBox="0 0 127 198"
   height="198mm"
   width="127mm">
  <defs
     id="defs2" />
  <sodipodi:namedview
     inkscape:window-maximized="1"
     inkscape:window-y="27"
     inkscape:window-x="67"
     inkscape:window-height="1025"
     inkscape:window-width="1853"
     inkscape:snap-grids="true"
     inkscape:snap-others="true"
     showgrid="false"
     inkscape:document-rotation="0"
     inkscape:current-layer="layer3"
     inkscape:document-units="mm"
     inkscape:cy="374.17323"
     inkscape:cx="49.883109"
     inkscape:zoom="0.66245342"
     inkscape:pageshadow="2"
     inkscape:pageopacity="0"
     borderopacity="1.0"
     bordercolor="#666666"
     pagecolor="#ffffff"
     id="base"
     units="in" />
  <metadata
     id="metadata5">
    <rdf:RDF>
      <cc:Work
         rdf:about="">
        <dc:format>image/svg+xml</dc:format>
        <dc:type
           rdf:resource="http://purl.org/dc/dcmitype/StillImage" />
        <dc:title></dc:title>
      </cc:Work>
    </rdf:RDF>
  </metadata>
  <g
     style="display:inline"
     inkscape:label="Layer 1 copy"
     inkscape:groupmode="layer"
     id="g908">
    <rect
       style="fill:#000100;fill-opacity:0.287268;stroke-width:0.1912;stroke-miterlimit:4;stroke-dasharray:none"
       id="rect906"
       width="67.07251"
       height="149.93233"
       x="54.143127"
       y="16.456541"
       transform="matrix(0.96809997,0.25056426,-0.23354167,0.97234679,0,0)" />
    <path
       id="path962"
       d="m 88.420014,33.095343 c 0.62168,-0.681394 -0.91583,-1.055444 -0.82391,-1.386371 0.62007,-2.232346 6.85223,-4.200184 8.88389,-4.352563 3.727416,-0.279567 8.216016,1.812086 11.283976,1.096201 2.01178,-0.469435 4.23251,-1.864022 5.51661,-3.482052 0.39582,-0.498748 0.98102,-2.284344 1.03885,-2.579296 0.0731,-0.372644 0.10746,-0.717912 0.10746,-1.0962 0,-0.118219 -0.11821,-0.354653 0,-0.354653 0.23376,0 0.69651,0.59464 0.85974,0.741548 1.34455,1.210145 3.42632,1.788493 4.51359,3.256361 0.82792,1.117741 -2.64763,3.962774 -3.36729,4.610492 -4.69331,4.224152 -10.68842,3.521678 -16.442356,4.384805 -0.91777,0.13767 -1.75219,0.247134 -2.61502,0.612584 -0.41814,0.177102 -1.63623,0.677066 -1.18213,0.677066 0.17195,0 0.0127,-0.344376 0,-0.515861 -0.56121,-0.02149 -1.12231,-0.04644 -1.68364,-0.06448 -2.21792,-0.07129 -3.97492,-1.547576 -6.08977,-1.547581 z"
       style="fill:#000000;fill-opacity:0.23101;stroke:#000001;stroke-width:0.264583px;stroke-linecap:butt;stroke-linejoin:miter;stroke-opacity:0.115937" />
  </g>
  <g
     style="display:inline"
     id="layer1"
     inkscape:groupmode="layer"
     inkscape:label="Layer 1">
    <path
       d="M 43.527454,20.5314 8.5120203,166.31733 73.444489,183.12354 108.46044,37.33709 Z m 25.843899,14.04462 c 0.298231,-0.0038 0.597186,0.0059 0.89607,0.02429 0.489958,-0.04678 0.979453,0.03145 1.471745,0.03152 0.539268,0.05909 1.132882,-0.120869 1.665531,0.01704 0.253799,0.06571 0.49403,0.175721 0.74104,0.263549 0.746339,0.494049 1.503357,1.02642 2.103747,1.696022 -0.03565,-0.0095 -0.06639,-0.01625 -0.101286,-0.02532 0.447845,0.405575 0.714407,0.920999 0.230479,1.248503 0.0081,0.110043 0.01622,0.217286 0.02687,0.371036 -0.02402,0.608316 -0.03029,1.214159 -0.02429,1.823143 0.0499,0.740711 -0.08627,1.196488 -0.375687,1.536343 -0.106947,0.380973 -0.231854,0.756163 -0.37207,1.12241 -0.577543,0.831458 -1.355934,1.521155 -2.299602,1.823661 -0.259792,0.15222 -0.552564,0.310039 -0.671793,0.375688 -0.519168,0.313044 -1.019697,0.331004 -1.581298,0.271301 0.03922,0.008 0.07701,0.0191 0.08888,0.03979 0.02611,0.0456 -0.104699,0.0076 -0.157099,0.01138 -0.729586,0.05535 -1.451793,0.04855 -2.168859,-0.0894 -0.549799,-0.261694 -1.025406,-0.660048 -1.473295,-1.084688 -0.06547,-0.0051 -0.12727,-0.0064 -0.194821,-0.01344 -0.220525,-0.06283 -0.446368,-0.108633 -0.661458,-0.188103 -0.242673,-0.08966 -0.69315,-0.331975 -0.852659,-0.547253 -0.164801,-0.22242 -0.453446,-1.006348 -0.376206,-0.740521 0.01471,0.05059 0.03117,0.100494 0.04651,0.150894 -0.642924,-0.79511 -0.566692,-1.777981 -0.504362,-2.731101 0.05784,-0.626565 0.01701,-1.253754 0.01291,-1.88102 0.0097,-0.35669 0.186846,-1.072238 0.494543,-1.500167 0.187849,-0.438322 0.472832,-0.76269 0.81752,-1.007692 0.05,-0.05599 0.09263,-0.104436 0.171051,-0.190685 0.03509,-0.0386 0.02027,0.0052 -0.0093,0.06873 0.201287,-0.221281 0.402296,-0.442756 0.60358,-0.66404 0.673727,-0.196533 1.324478,-0.186788 2.021065,-0.196887 0.143957,-0.0085 0.28815,-0.01315 0.432533,-0.01498 z m 5.09323,1.701705 c 0.0155,0.014 0.03113,0.02763 0.04651,0.04186 0.01053,-0.01273 0.02085,-0.02564 0.03152,-0.03824 -0.02804,-0.0021 -0.05104,-0.0019 -0.07803,-0.0036 z m 0.105936,6.856944 c -0.0046,2.65e-4 -0.01667,0.01148 -0.03824,0.03617 -0.05959,0.06821 -0.11316,0.1417 -0.165881,0.215492 0.0081,0.01855 0.01593,0.03716 0.02376,0.05581 0.108003,-0.16234 0.197207,-0.308771 0.180351,-0.307475 z"
       style="fill:#83dcf6;fill-opacity:1;stroke-width:0.191185;stroke-miterlimit:4;stroke-dasharray:none"
       id="rect78" />
    <rect
       transform="rotate(60)"
       y="-10.788481"
       x="92.869385"
       height="23.890738"
       width="22.854534"
       id="rect967"
       style="fill:none;fill-opacity:0.23101;stroke:none;stroke-width:0.219;stroke-miterlimit:4;stroke-dasharray:none;stroke-opacity:0.115937" />
    <rect
       transform="rotate(50)"
       y="1.925696"
       x="106.89642"
       height="24.180908"
       width="24.072487"
       id="rect969"
       style="fill:none;fill-opacity:0.23101;stroke:none;stroke-width:0.219;stroke-miterlimit:4;stroke-dasharray:none;stroke-opacity:0.115937" />
    <path
       id="path977"
       d="M 62.230999,75.973174 78.37619,85.175511 69.09517,101.6709 62.210541,97.934261"
       style="fill:none;stroke:none;stroke-width:0.264583px;stroke-linecap:butt;stroke-linejoin:miter;stroke-opacity:0.987932" />
    <path
       id="path979"
       d="m 62.230997,75.973175 -2.901672,5.331431"
       style="fill:none;stroke:none;stroke-width:0.264583px;stroke-linecap:butt;stroke-linejoin:miter;stroke-opacity:1" />
    <path
       id="path981"
       d="M 60.347031,88.938601 54.982493,78.596469 39.243083,87.790281 47.5225,103.62632 63.779211,94.453281 61.915554,91.531351"
       style="fill:none;stroke:none;stroke-width:0.264583px;stroke-linecap:butt;stroke-linejoin:miter;stroke-opacity:1" />
    <path
       id="path983"
       d="m 67.37142,86.741671 -14.782577,12.425868 0.833811,1.076851"
       style="fill:none;stroke:none;stroke-width:0.264583px;stroke-linecap:butt;stroke-linejoin:miter;stroke-opacity:1" />
    <path
       id="path985"
       d="m 67.37142,86.741671 6.26461,7.40804"
       style="fill:none;stroke:none;stroke-width:0.264583px;stroke-linecap:butt;stroke-linejoin:miter;stroke-opacity:1" />
    <path
       id="path987"
       d="m 75.62584,96.509321 3.56564,5.016139 -14.460511,12.13543 -9.324339,-10.70296"
       style="fill:none;stroke:none;stroke-width:0.264583px;stroke-linecap:butt;stroke-linejoin:miter;stroke-opacity:1" />
    <path
       id="path989"
       d="m 57.75386,84.18618 -4.919675,8.215541 1.974958,1.23943"
       style="fill:none;stroke:none;stroke-width:0.264583px;stroke-linecap:butt;stroke-linejoin:miter;stroke-opacity:1" />
    <path
       id="path991"
       d="m 57.257225,95.550831 2.081311,0.86422"
       style="fill:none;stroke:none;stroke-width:0.264583px;stroke-linecap:butt;stroke-linejoin:miter;stroke-opacity:1" />
    <path
       id="path993"
       d="m 41.099358,97.067051 c -2.950843,-5.12836 -5.446278,-9.48899 -5.545411,-9.69024 -0.179774,-0.36499 -0.154308,-0.3809 9.948144,-6.215149 5.570611,-3.217072 10.151139,-5.8567 10.178956,-5.865841 0.02783,-0.0091 0.477763,0.727206 0.999886,1.636336 l 0.949315,1.652962 -0.58062,1.093485 c -0.319336,0.601421 -0.616833,1.072584 -0.66119,1.046974 -0.04431,-0.02559 -0.337356,-0.548299 -0.65121,-1.161585 -0.313854,-0.613291 -0.613412,-1.138805 -0.665685,-1.167811 -0.173607,-0.09631 -16.067214,9.268099 -16.018806,9.438189 0.08645,0.30374 8.308207,15.961259 8.407347,16.010969 0.05328,0.0268 0.90834,-0.4163 1.899835,-0.98463 l 1.802697,-1.03334 0.51495,0.64761 c 0.283219,0.35619 0.524014,0.68145 0.535117,0.72276 0.02927,0.10898 -5.57467,3.32552 -5.668937,3.25386 -0.04359,-0.0332 -2.493547,-4.25616 -5.444388,-9.384549 z"
       style="fill:#de8787;fill-opacity:1;stroke:none;stroke-width:0.125143;stroke-miterlimit:4;stroke-dasharray:none;stroke-opacity:0.987932" />
    <path
       id="path995"
       d="m 58.405872,98.174831 c 0.249144,0.10526 0.661841,0.34296 0.917045,0.52831 0.255243,0.185258 0.05144,0.099 -0.452959,-0.19147 -0.504491,-0.29036 -0.713312,-0.44198 -0.464169,-0.3367 z"
       style="fill:#de8787;fill-opacity:1;stroke:none;stroke-width:0.125143;stroke-miterlimit:4;stroke-dasharray:none;stroke-opacity:0.987932" />
    <path
       id="path997"
       d="m 51.935067,102.27456 c -0.240852,-0.29452 -0.384588,-0.58983 -0.319475,-0.65618 0.06507,-0.0663 1.501021,-0.89843 3.190898,-1.849071 l 3.072517,-1.728428 0.829114,0.48906 c 0.455968,0.26908 0.821811,0.501728 0.812861,0.517228 -0.1127,0.19523 -6.830627,3.903871 -6.964154,3.844591 -0.101014,-0.0451 -0.381111,-0.32246 -0.621722,-0.61725 z"
       style="fill:#de8787;fill-opacity:1;stroke:none;stroke-width:0.125143;stroke-miterlimit:4;stroke-dasharray:none;stroke-opacity:0.987932" />
    <path
       id="path999"
       d="m 58.305761,97.825801 c 0.01627,-0.0279 1.318528,-0.77503 2.894043,-1.65991 1.575516,-0.88488 2.853679,-1.63596 2.840369,-1.66907 -0.01333,-0.033 -0.432695,-0.71339 -0.931947,-1.51175 -0.499256,-0.79835 -0.918138,-1.47681 -0.930851,-1.50766 -0.04292,-0.10414 1.831256,-1.63865 1.931034,-1.58106 0.109797,0.0634 2.657419,4.46063 2.742312,4.7333 0.02956,0.0949 -1.510361,1.07533 -3.434391,2.18657 l -3.487973,2.01446 -0.826036,-0.4769 c -0.454322,-0.26231 -0.812786,-0.49988 -0.796586,-0.52793 z"
       style="fill:#de8787;fill-opacity:1;stroke:none;stroke-width:0.125143;stroke-miterlimit:4;stroke-dasharray:none;stroke-opacity:0.987932" />
    <path
       id="path1001"
       d="m 58.510947,84.921607 -1.898645,-3.666215 0.621799,-1.164707 0.621798,-1.164706 0.3669,0.661756 c 0.201796,0.363967 1.236743,2.162778 2.299885,3.997357 l 1.932977,3.335599 -0.991408,0.83042 c -0.545271,0.45674 -1.005643,0.83185 -1.023032,0.83356 -0.01752,0.002 -0.886019,-1.64665 -1.930272,-3.663064 z"
       style="fill:#de8787;fill-opacity:1;stroke:none;stroke-width:0.125143;stroke-miterlimit:4;stroke-dasharray:none;stroke-opacity:0.987932" />
    <path
       id="path1003"
       d="m 75.48557,92.713581 -0.61501,-0.74908 1.86571,-3.38267 c 1.02613,-1.86048 1.84815,-3.42033 1.8267,-3.46635 -0.0214,-0.046 -3.70971,-2.162206 -8.19618,-4.70261 l -8.157181,-4.618956 -1.4285,2.534333 -1.4285,2.534336 -0.450026,-0.792532 c -0.247518,-0.435902 -0.545182,-0.9339 -0.661474,-1.10667 -0.210083,-0.312109 -0.200352,-0.333336 1.515114,-3.304609 l 1.726563,-2.990494 10.081984,5.820832 10.08197,5.82084 -2.68363,4.64818 c -1.47599,2.55651 -2.72385,4.61587 -2.77308,4.57634 -0.0493,-0.0396 -0.36622,-0.40892 -0.70446,-0.82089 z"
       style="fill:#de8787;fill-opacity:1;stroke:none;stroke-width:0.125143;stroke-miterlimit:4;stroke-dasharray:none;stroke-opacity:0.987932" />
    <path
       id="path1005"
       d="m 53.016118,87.332981 c 1.787828,-3.096613 3.278214,-5.614257 3.311981,-5.594763 0.03379,0.01943 0.32552,0.551573 0.648348,1.182399 l 0.586962,1.146962 -2.502723,4.206422 -2.502728,4.20643 0.955908,0.55191 c 0.52575,0.30352 0.941913,0.57613 0.924861,0.60567 -0.01717,0.0297 -0.347212,0.31036 -0.733617,0.62393 l -0.702542,0.5701 -1.618514,-0.93445 -1.618511,-0.93444 z"
       style="fill:#de8787;fill-opacity:1;stroke:none;stroke-width:0.125143;stroke-miterlimit:4;stroke-dasharray:none;stroke-opacity:0.987932" />
    <path
       id="path1007"
       d="m 63.537409,88.165271 c -0.306269,-0.5474 -0.542365,-1.06607 -0.52466,-1.15259 0.01769,-0.0865 0.972976,-0.94691 2.122818,-1.91196 l 2.090626,-1.754631 0.631067,0.764951 c 0.34708,0.420725 1.94665,2.33032 3.55458,4.24354 l 2.92352,3.47858 -0.47931,0.8302 -0.47932,0.83017 -1.27318,-1.49892 c -0.70026,-0.82443 -2.00568,-2.36188 -2.90093,-3.41661 -0.89526,-1.05472 -1.685809,-1.9512 -1.756781,-1.99217 -0.07096,-0.041 -0.850294,0.53038 -1.731824,1.26966 -0.881534,0.7393 -1.606603,1.33537 -1.611269,1.32461 -0.0047,-0.011 -0.259069,-0.46742 -0.565337,-1.01483 z"
       style="fill:#de8787;fill-opacity:1;stroke:none;stroke-width:0.125143;stroke-miterlimit:4;stroke-dasharray:none;stroke-opacity:0.987932" />
    <path
       id="path1009"
       d="m 60.416797,99.007469 c 0.02506,-0.0434 0.366083,-0.268888 0.75784,-0.501118 0.700835,-0.41545 0.725598,-0.41629 1.540173,-0.0531 0.455318,0.20307 1.723851,0.886488 2.81894,1.518748 1.095098,0.632241 2.38039,1.323151 2.85625,1.535301 l 0.86517,0.38578 2.66364,-4.807899 c 1.46501,-2.64432 2.71124,-4.78041 2.76944,-4.74682 0.0583,0.0336 0.39779,0.40571 0.75469,0.82696 l 0.64891,0.76594 -3.08118,5.336748 -3.08117,5.336761 -4.779126,-2.75922 c -2.628514,-1.51757 -4.758618,-2.794731 -4.733573,-2.838121 z"
       style="fill:#de8787;fill-opacity:1;stroke:none;stroke-width:0.125143;stroke-miterlimit:4;stroke-dasharray:none;stroke-opacity:0.987932" />
    <path
       id="path1011"
       d="m 53.975259,94.477121 c 0.36888,-0.29113 0.723575,-0.57735 0.78823,-0.63603 0.364595,-0.33098 7.75512,-6.53174 7.810026,-6.55273 0.168398,-0.0644 1.234298,2.05752 1.106964,2.20367 -0.07796,0.0895 -1.924766,1.66686 -4.104003,3.50529 l -3.962252,3.34259 -1.154815,-0.66674 -1.154823,-0.66672 z"
       style="fill:#de8787;fill-opacity:1;stroke:none;stroke-width:0.125143;stroke-miterlimit:4;stroke-dasharray:none;stroke-opacity:0.987932" />
    <path
       id="path1013"
       d="m 49.995523,99.937909 -1.045578,-1.248038 2.062587,-1.73338 2.062591,-1.73338 1.14627,0.66181 1.146275,0.66182 -1.320421,1.11438 c -0.726231,0.61291 -1.419441,1.192318 -1.540472,1.287598 -0.171913,0.13532 -0.129844,0.28788 0.192309,0.69737 0.226775,0.28831 0.401489,0.542991 0.388195,0.566021 -0.06831,0.11832 -1.900692,1.07693 -1.967733,1.02941 -0.04307,-0.0305 -0.54895,-0.6172 -1.12402,-1.303611 z"
       style="fill:#de8787;fill-opacity:1;stroke:none;stroke-width:0.125143;stroke-miterlimit:4;stroke-dasharray:none;stroke-opacity:0.987932" />
    <path
       id="path1017"
       d="m 55.406629,102.95793 v 0 0 0 0 l -2.337575,0.94301 z"
       style="fill:none;stroke:none;stroke-width:0.264583px;stroke-linecap:butt;stroke-linejoin:miter;stroke-opacity:1" />
    <path
       id="path1019"
       d="m 53.069054,103.90094 11.1173,13.20806 18.52364,-15.54322 -6.618154,-7.634459 -0.46595,2.57802"
       style="fill:none;stroke:none;stroke-width:0.264583px;stroke-linecap:butt;stroke-linejoin:miter;stroke-opacity:1" />
    <path
       id="path1021"
       d="m 58.770266,110.39628 -5.397329,-6.41726 0.67233,-0.27081 c 0.369775,-0.14898 0.818067,-0.32868 0.996206,-0.39945 l 0.323877,-0.12869 4.622882,5.30856 c 2.542583,2.91971 4.656818,5.3276 4.698299,5.35087 0.05712,0.0321 14.327719,-11.85839 14.674509,-12.22698 0.0398,-0.0426 -0.71782,-1.18173 -1.74034,-2.616731 l -1.81105,-2.541588 0.18363,-0.97463 c 0.10063,-0.53612 0.21507,-0.98305 0.25344,-0.99333 0.0702,-0.0185 6.07659,6.843299 6.13206,7.005759 0.0271,0.0795 -17.960008,15.25612 -18.135428,15.30177 -0.04176,0.0104 -2.504576,-2.86805 -5.473112,-6.39754 z"
       style="fill:#de8787;fill-opacity:1;stroke:none;stroke-width:0.0715687;stroke-miterlimit:4;stroke-dasharray:none;stroke-opacity:0.987932" />
    <path
       id="path1023"
       d="M 57.257223,95.550831 Z"
       style="fill:none;stroke:none;stroke-width:0.264583px;stroke-linecap:butt;stroke-linejoin:miter;stroke-opacity:1" />
  </g>
  <g
     inkscape:label="Layer 2"
     id="layer2"
     inkscape:groupmode="layer">
    <path
       id="path935"
       d="M 65.334899,36.581573 C 63.042841,25.364748 62.740118,27.181155 62.740118,27.181155 l 2.825401,-9.990235 6.962621,-7.2656251 10.494374,-3.5874022 6.10491,6.8569333 7.16443,0.272462 2.87586,-6.6752943 3.784026,-1.362305 -1.4127,8.2192383 -2.522686,3.723635 -7.61852,0.181639 -9.132124,-5.267578 -6.60944,1.816406 -6.861711,4.404786 -0.85771,7.311035 2.172441,11.099122 z"
       style="fill:#f1dcf6;fill-opacity:1;stroke:#ffe4ff;stroke-width:0.264583px;stroke-linecap:butt;stroke-linejoin:miter;stroke-opacity:1" />
    <path
       id="path945"
       d="m 65.334899,36.581573 9.235611,6.553096 -0.0279,-6.853327 1.60559,0.301778 -4.40903,-1.951289 -1.62988,2.286141 z"
       style="fill:#f1dcf6;fill-opacity:1;stroke:#ffd7ff;stroke-width:0.264583px;stroke-linecap:butt;stroke-linejoin:miter;stroke-opacity:1" />
    <path
       id="path947"
       d="M 74.14574,34.912419 Z"
       style="fill:none;stroke:#000000;stroke-width:0.264583px;stroke-linecap:butt;stroke-linejoin:miter;stroke-opacity:1" />
    <path
       inkscape:transform-center-y="-0.67879515"
       inkscape:transform-center-x="0.12526864"
       sodipodi:nodetypes="cccccccc"
       id="path949"
       d="m 75.65627,14.103028 v 0 l 0.82772,7.475963 0.79864,7.598791 -2.73819,-0.924176 -0.57046,-5.818894 -5.179421,-3.926897 z"
       style="fill:#f1ccf6;fill-opacity:1;stroke:#ffb9ff;stroke-width:0.264583px;stroke-linecap:butt;stroke-linejoin:miter;stroke-opacity:1" />
  </g>
  <g
     inkscape:label="logo"
     id="layer3"
     inkscape:groupmode="layer">
    <rect
       transform="rotate(30)"
       y="31.947538"
       x="89.397797"
       height="23.794014"
       width="23.678444"
       id="rect965"
       style="fill:none;fill-opacity:0.23101;stroke:none;stroke-width:0.219;stroke-miterlimit:4;stroke-dasharray:none;stroke-opacity:0.115937" />
    <path
       id="path1129"
       d="m 57.257223,95.550831 -1.017831,1.36077 1.019003,0.54569 2.080141,-1.04224"
       style="fill:none;stroke:none;stroke-width:0.264583px;stroke-linecap:butt;stroke-linejoin:miter;stroke-opacity:1" />
    <path
       id="path1131"
       d="m 56.896644,97.068941 c -0.196567,-0.114183 -0.358418,-0.224716 -0.359667,-0.245628 -0.0029,-0.04861 0.747287,-1.063046 0.787601,-1.065028 0.01662,-7.94e-4 0.391877,0.149119 0.833922,0.333187 l 0.803719,0.334672 -0.854088,0.425201 -0.854088,0.425199 z"
       style="fill:#de8787;fill-opacity:1;stroke:none;stroke-width:0.0333841;stroke-miterlimit:4;stroke-dasharray:none;stroke-opacity:0.000353465" />
    <path
       transform="scale(0.26458333)"
       id="path1133"
       d=""
       style="fill:#ffaaaa;fill-opacity:1;stroke:none;stroke-width:0.953897;stroke-miterlimit:4;stroke-dasharray:none;stroke-opacity:0.000353465" />
    <path
       id="path1135"
       d="m 42.033172,98.361711 c -2.431719,-4.220739 -4.871463,-8.471567 -5.421653,-9.446284 l -1.000345,-1.772213 3.592145,-2.118363 c 1.975681,-1.1651 6.47134,-3.771617 9.990357,-5.792261 l 6.398209,-3.673898 0.843585,1.355339 c 0.950192,1.526622 0.991465,1.813457 0.411572,2.860299 l -0.4104,0.74087 -0.491379,-0.950222 c -0.877337,-1.696585 0.05111,-2.078135 -11.074556,4.551157 -3.051236,1.818097 -5.634051,3.445348 -5.739593,3.616115 -0.172813,0.27962 7.449537,15.26658 8.137348,15.99954 0.187806,0.20013 0.895881,-0.0324 2.060503,-0.67659 1.69585,-0.93807 1.796264,-0.95731 2.269141,-0.43479 0.466365,0.51533 0.36463,0.62118 -1.771965,1.84365 -1.246703,0.71331 -2.515343,1.35875 -2.819201,1.43432 -0.446763,0.11111 -1.398384,-1.33086 -4.973768,-7.536669 z"
       style="fill:#f1dcf6;fill-opacity:1;stroke:none;stroke-width:0.252385;stroke-miterlimit:4;stroke-dasharray:none;stroke-opacity:0.000353465" />
    <path
       id="path1137"
       d="M 51.388781,93.812471 C 50.64472,93.376464 50.03594,92.941335 50.03594,92.845516 c 0,-0.09582 1.293921,-2.403612 2.875375,-5.128431 3.314263,-5.710413 3.285821,-5.663296 3.418676,-5.663296 0.05526,0 0.323085,0.465754 0.595164,1.035011 l 0.494689,1.035007 -2.47604,4.15815 c -2.759897,4.634843 -2.656916,4.211518 -1.217583,5.005202 l 0.586438,0.323376 -0.604366,0.505783 c -0.332401,0.278183 -0.685885,0.501983 -0.785519,0.497337 -0.09963,-0.0047 -0.789932,-0.365178 -1.533993,-0.801184 z"
       style="fill:#f1dcf6;fill-opacity:1;stroke:none;stroke-width:0.144486;stroke-miterlimit:4;stroke-dasharray:none;stroke-opacity:0.000353465" />
    <path
       id="path1139"
       d="m 58.560918,84.803601 -1.858383,-3.53533 0.547314,-1.003721 c 0.301022,-0.552045 0.588095,-1.000765 0.63794,-0.997159 0.112464,0.0081 4.264911,7.26976 4.32005,7.554717 0.03442,0.17785 -1.280311,1.346377 -1.656948,1.472692 -0.07237,0.02426 -0.967864,-1.546768 -1.989973,-3.491199 z"
       style="fill:#f1dcf6;fill-opacity:1;stroke:none;stroke-width:0.144486;stroke-miterlimit:4;stroke-dasharray:none;stroke-opacity:0.000353465" />
    <path
       id="path1141"
       d="m 75.623513,92.752447 c -0.280024,-0.330788 -0.509132,-0.695373 -0.509132,-0.810192 0,-0.114818 0.79861,-1.6697 1.77469,-3.455291 0.976082,-1.785591 1.774692,-3.289922 1.774692,-3.342955 0,-0.05304 -1.080087,-0.719079 -2.400196,-1.4801 -4.292328,-2.474458 -13.56459,-7.70005 -13.856624,-7.809214 -0.222302,-0.0831 -0.584887,0.429302 -1.656611,2.341096 -0.754613,1.346113 -1.420755,2.391723 -1.480318,2.323579 -0.05956,-0.06814 -0.33021,-0.526899 -0.601443,-1.019455 l -0.493148,-0.895557 1.633354,-2.857481 c 0.898346,-1.571614 1.648908,-2.879942 1.667918,-2.907395 0.04721,-0.06819 19.48598,11.135201 19.771423,11.395109 0.183769,0.167331 -0.234876,1.001744 -2.166093,4.317294 -1.316638,2.260433 -2.518873,4.265601 -2.671633,4.455932 -0.27218,0.339119 -0.287951,0.334002 -0.786879,-0.25537 z"
       style="fill:#f1dcf6;fill-opacity:1;stroke:none;stroke-width:0.144486;stroke-miterlimit:4;stroke-dasharray:none;stroke-opacity:0.000353465" />
    <path
       id="path1143"
       d="m 72.43013,92.221904 c -0.471252,-0.552045 -1.745586,-2.044533 -2.831854,-3.316637 -1.086268,-1.272106 -2.079823,-2.312918 -2.207903,-2.312918 -0.128079,0 -0.921033,0.552132 -1.76212,1.226965 l -1.529244,1.226966 -0.477303,-0.921486 c -0.262517,-0.506817 -0.481007,-0.975603 -0.485537,-1.041744 -0.0136,-0.19853 3.993777,-3.552338 4.136525,-3.461895 0.175543,0.111223 6.475344,7.644135 6.718692,8.033795 0.148021,0.237019 0.103582,0.443756 -0.201494,0.937379 -0.21527,0.348313 -0.416496,0.633296 -0.447169,0.633296 -0.03068,0 -0.441341,-0.451676 -0.912593,-1.003721 z"
       style="fill:#f1dcf6;fill-opacity:1;stroke:none;stroke-width:0.144486;stroke-miterlimit:4;stroke-dasharray:none;stroke-opacity:0.000353465" />
    <path
       id="path1145"
       d="m 54.521537,95.601419 -1.013039,-0.581152 4.487021,-3.777559 c 2.467864,-2.077659 4.540258,-3.77756 4.605319,-3.77756 0.209754,0 0.92691,1.710825 0.826664,1.972064 -0.08355,0.217739 -7.684495,6.765055 -7.836992,6.750645 -0.03076,-0.0029 -0.5118,-0.266803 -1.068973,-0.586438 z"
       style="fill:#f1dcf6;fill-opacity:1;stroke:none;stroke-width:0.144486;stroke-miterlimit:4;stroke-dasharray:none;stroke-opacity:0.000353465" />
    <path
       id="path1147"
       d="m 50.120908,99.920629 c -1.145966,-1.350797 -1.290381,-0.99873 1.305396,-3.182459 l 1.652204,-1.389939 1.007763,0.553374 c 0.554271,0.304358 1.008698,0.59976 1.009836,0.656452 0.0011,0.05669 -0.626343,0.629103 -1.394408,1.272024 -0.768064,0.642924 -1.396478,1.233998 -1.396478,1.313508 0,0.0795 0.160435,0.34851 0.356523,0.5978 l 0.356526,0.453241 -0.874403,0.4431 c -0.48092,0.2437 -0.911368,0.44309 -0.956553,0.44309 -0.04518,0 -0.525066,-0.52208 -1.066406,-1.160191 z"
       style="fill:#f1dcf6;fill-opacity:1;stroke:none;stroke-width:0.144486;stroke-miterlimit:4;stroke-dasharray:none;stroke-opacity:0.000353465" />
    <path
       transform="scale(0.26458333)"
       id="path1149"
       d=""
       style="fill:#f1dcf6;fill-opacity:1;stroke:none;stroke-width:0.546089;stroke-miterlimit:4;stroke-dasharray:none;stroke-opacity:0.000353465" />
    <path
       transform="scale(0.26458333)"
       id="path1151"
       d=""
       style="fill:#f1dcf6;fill-opacity:1;stroke:none;stroke-width:0.546089;stroke-miterlimit:4;stroke-dasharray:none;stroke-opacity:0.000353465" />
    <path
       transform="scale(0.26458333)"
       id="path1153"
       d=""
       style="fill:#f1dcf6;fill-opacity:1;stroke:none;stroke-width:0.546089;stroke-miterlimit:4;stroke-dasharray:none;stroke-opacity:0.000353465" />
    <path
       id="path1155"
       d="m 52.136668,102.35801 c -0.200496,-0.25489 -0.337979,-0.54312 -0.305517,-0.6405 0.03246,-0.0974 1.397198,-0.93642 3.032747,-1.864521 l 2.973723,-1.687445 0.626406,0.321365 c 0.344522,0.176753 0.670873,0.39331 0.725223,0.48125 0.08931,0.14452 -3.517643,2.265141 -5.782318,3.399581 l -0.905726,0.4537 z"
       style="fill:#f1dcf6;fill-opacity:1;stroke:none;stroke-width:0.144486;stroke-miterlimit:4;stroke-dasharray:none;stroke-opacity:0.000353465" />
    <path
       transform="scale(0.26458333)"
       id="path1157"
       d=""
       style="fill:#f1dcf6;fill-opacity:1;stroke:none;stroke-width:0.546089;stroke-miterlimit:4;stroke-dasharray:none;stroke-opacity:0.000353465" />
    <path
       id="path1159"
       d="m 56.959231,96.977678 c -0.286901,-0.209788 -0.28112,-0.250161 0.095,-0.663236 0.396166,-0.435083 0.407731,-0.436676 1.068009,-0.147069 l 0.667507,0.29278 -0.762511,0.370454 c -0.636371,0.309174 -0.813046,0.333502 -1.068009,0.147071 z"
       style="fill:#f1dcf6;fill-opacity:1;stroke:none;stroke-width:0.144486;stroke-miterlimit:4;stroke-dasharray:none;stroke-opacity:0.000353465" />
    <path
       id="path1161"
       d="m 59.083899,98.232325 -0.640118,-0.393759 2.211158,-1.257096 c 1.216133,-0.691406 2.50539,-1.436537 2.865011,-1.655847 l 0.65386,-0.398748 -0.86822,-1.392505 c -0.47752,-0.765879 -0.869945,-1.484574 -0.872056,-1.597104 -0.004,-0.211019 1.352764,-1.453722 1.587106,-1.453722 0.166843,0 2.598491,4.197874 2.598491,4.485905 0,0.274709 -6.326513,4.078827 -6.755527,4.062084 -0.07677,-0.003 -0.42764,-0.182639 -0.779705,-0.399208 z"
       style="fill:#f1dcf6;fill-opacity:1;stroke:none;stroke-width:0.144486;stroke-miterlimit:4;stroke-dasharray:none;stroke-opacity:0.000353465" />
    <path
       id="path1163"
       d="m 67.225088,102.94482 c -4.909648,-2.86218 -6.540992,-3.847771 -6.540992,-3.951801 0,-0.26037 1.097822,-0.730339 1.481243,-0.634107 0.226806,0.05693 1.849948,0.889017 3.606985,1.849098 1.757037,0.96009 3.275135,1.74553 3.373549,1.74543 0.09841,-1e-4 0.407323,-0.41249 0.686464,-0.91644 2.555335,-4.613259 4.547407,-8.113513 4.726538,-8.304953 0.177633,-0.189844 0.315828,-0.111646 0.764384,0.43253 0.301151,0.36535 0.544031,0.744564 0.539731,0.842698 -0.01251,0.285959 -5.842807,10.276055 -6.024441,10.322795 -0.09054,0.0233 -1.266597,-0.60007 -2.613461,-1.38525 z"
       style="fill:#f1dcf6;fill-opacity:1;stroke:none;stroke-width:0.144486;stroke-miterlimit:4;stroke-dasharray:none;stroke-opacity:0.000353465" />
    <path
       id="path1165"
       d="m 61.78109,113.78148 c -5.0732,-5.94924 -8.079391,-9.56143 -8.079391,-9.70808 0,-0.0837 0.361702,-0.29033 0.803781,-0.45916 0.802796,-0.30659 0.804262,-0.30646 1.195797,0.10721 0.215609,0.22779 2.293792,2.59399 4.618183,5.25821 2.324394,2.66421 4.30284,4.84403 4.396552,4.84403 0.365022,0 14.645992,-11.9871 14.645992,-12.2935 0,-0.11936 -0.777068,-1.31534 -1.726819,-2.657711 l -1.726816,-2.440686 0.1778,-0.899232 0.177797,-0.899231 0.764286,0.850069 c 2.101644,2.337533 5.12671,5.864461 5.12671,5.977231 0,0.17607 -17.099127,14.67682 -17.719122,15.02652 -0.164423,0.0928 -0.958789,-0.71686 -2.65475,-2.70567 z"
       style="fill:#f1dcf6;fill-opacity:1;stroke:none;stroke-width:0.144486;stroke-miterlimit:4;stroke-dasharray:none;stroke-opacity:0.000353465" />
  </g>
</svg>
