<?xml version="1.0" encoding="UTF-8" standalone="no"?>
<svg
   xmlns:dc="http://purl.org/dc/elements/1.1/"
   xmlns:cc="http://creativecommons.org/ns#"
   xmlns:rdf="http://www.w3.org/1999/02/22-rdf-syntax-ns#"
   xmlns:svg="http://www.w3.org/2000/svg"
   xmlns="http://www.w3.org/2000/svg"
   xmlns:sodipodi="http://sodipodi.sourceforge.net/DTD/sodipodi-0.dtd"
   xmlns:inkscape="http://www.inkscape.org/namespaces/inkscape"
   sodipodi:docname="drawing.svg"
   inkscape:version="1.0 (4035a4fb49, 2020-05-01)"
   id="svg8"
   version="1.1"
   viewBox="0 0 210 210"
   height="210mm"
   width="210mm">
  <defs
     id="defs2" />
  <sodipodi:namedview
     inkscape:window-maximized="1"
     inkscape:window-y="-9"
     inkscape:window-x="-9"
     inkscape:window-height="1001"
     inkscape:window-width="1920"
     inkscape:snap-grids="true"
     inkscape:snap-others="true"
     showgrid="false"
     inkscape:document-rotation="0"
     inkscape:current-layer="layer3"
     inkscape:document-units="mm"
     inkscape:cy="381.41321"
     inkscape:cx="328.67943"
     inkscape:zoom="1.5157166"
     inkscape:pageshadow="2"
     inkscape:pageopacity="0"
     borderopacity="1.0"
     bordercolor="#666666"
     pagecolor="#ffffff"
     id="base" />
  <metadata
     id="metadata5">
    <rdf:RDF>
      <cc:Work
         rdf:about="">
        <dc:format>image/svg+xml</dc:format>
        <dc:type
           rdf:resource="http://purl.org/dc/dcmitype/StillImage" />
        <dc:title></dc:title>
      </cc:Work>
    </rdf:RDF>
  </metadata>
  <g
     style="display:inline"
     inkscape:label="Layer 1 copy"
     inkscape:groupmode="layer"
     id="g908">
    <rect
       style="fill:#000100;fill-opacity:0.287268;stroke-width:0.1912;stroke-miterlimit:4;stroke-dasharray:none"
       id="rect906"
       width="67.07251"
       height="149.93233"
       x="87.112495"
       y="23.409332"
       transform="matrix(0.96809997,0.25056426,-0.23354167,0.97234679,0,0)" />
    <path
       id="path962"
       d="m 118.71389,48.116812 c 0.62168,-0.681394 -0.91583,-1.055444 -0.82391,-1.386371 0.62007,-2.232346 6.85223,-4.200184 8.88389,-4.352563 3.72742,-0.279567 8.21602,1.812086 11.28398,1.096201 2.01178,-0.469435 4.23251,-1.864022 5.51661,-3.482052 0.39582,-0.498748 0.98102,-2.284344 1.03885,-2.579296 0.0731,-0.372644 0.10746,-0.717912 0.10746,-1.0962 0,-0.118219 -0.11821,-0.354653 0,-0.354653 0.23376,0 0.69651,0.59464 0.85974,0.741548 1.34455,1.210145 3.42632,1.788493 4.51359,3.256361 0.82792,1.117741 -2.64763,3.962774 -3.36729,4.610492 -4.69331,4.224152 -10.68842,3.521678 -16.44236,4.384805 -0.91777,0.13767 -1.75219,0.247134 -2.61502,0.612584 -0.41814,0.177102 -1.63623,0.677066 -1.18213,0.677066 0.17195,0 0.0127,-0.344376 0,-0.515861 -0.56121,-0.02149 -1.12231,-0.04644 -1.68364,-0.06448 -2.21792,-0.07129 -3.97492,-1.547576 -6.08977,-1.54758 z"
       style="fill:#000000;stroke:#000001;stroke-width:0.264583px;stroke-linecap:butt;stroke-linejoin:miter;stroke-opacity:0.11593747;fill-opacity:0.23101003" />
  </g>
  <g
     style="display:inline"
     id="layer1"
     inkscape:groupmode="layer"
     inkscape:label="Layer 1">
    <path
       transform="scale(0.26458333)"
       d="M 279.00977,134.37305 146.66797,685.375 392.08203,748.89453 524.42578,197.89062 Z m 97.67773,53.08203 c 1.12717,-0.0144 2.25708,0.0222 3.38672,0.0918 1.85181,-0.17679 3.70187,0.11886 5.5625,0.11914 2.03818,0.22333 4.28176,-0.45683 6.29492,0.0644 0.95924,0.24837 1.8672,0.66414 2.80078,0.99609 2.82081,1.86727 5.68198,3.87938 7.95117,6.41016 -0.13474,-0.0359 -0.25092,-0.0614 -0.38281,-0.0957 1.69264,1.53288 2.70012,3.48094 0.8711,4.71875 0.0308,0.41591 0.0613,0.82124 0.10156,1.40234 -0.0908,2.29915 -0.11448,4.58895 -0.0918,6.89062 0.18859,2.79954 -0.32605,4.52216 -1.41992,5.80665 -0.40421,1.4399 -0.8763,2.85794 -1.40625,4.24218 -2.18284,3.14252 -5.12479,5.74925 -8.69141,6.89258 -0.98189,0.57532 -2.08843,1.1718 -2.53906,1.41992 -1.96221,1.18316 -3.85397,1.25104 -5.97656,1.02539 0.14825,0.0301 0.29107,0.0722 0.33594,0.15039 0.0987,0.17235 -0.39571,0.0286 -0.59376,0.043 -2.75749,0.20919 -5.48709,0.1835 -8.19726,-0.33789 -2.07798,-0.98908 -3.87555,-2.49467 -5.56836,-4.09961 -0.24745,-0.0193 -0.48102,-0.0243 -0.73633,-0.0508 -0.83348,-0.23746 -1.68706,-0.41058 -2.5,-0.71094 -0.91719,-0.33886 -2.61978,-1.25471 -3.22265,-2.06836 -0.62287,-0.84064 -1.71381,-3.80352 -1.42188,-2.79882 0.0556,0.19121 0.1178,0.37982 0.17578,0.57031 -2.42995,-3.00514 -2.14183,-6.71993 -1.90625,-10.32227 0.21861,-2.36812 0.0643,-4.7386 0.0488,-7.10937 0.0367,-1.34812 0.70619,-4.05255 1.86914,-5.66992 0.70998,-1.65665 1.78708,-2.88261 3.08984,-3.8086 0.18899,-0.2116 0.35011,-0.39472 0.64649,-0.7207 0.13263,-0.14587 0.0766,0.0198 -0.0352,0.25976 0.76077,-0.83634 1.52049,-1.67341 2.28125,-2.50976 2.54637,-0.7428 5.0059,-0.70597 7.63867,-0.74414 0.54409,-0.0322 1.08907,-0.0497 1.63477,-0.0566 z m 19.25,6.43164 c 0.0586,0.0529 0.11766,0.10443 0.17578,0.1582 0.0398,-0.0481 0.0788,-0.0969 0.11914,-0.14453 -0.10596,-0.008 -0.19289,-0.007 -0.29492,-0.0137 z m 0.40039,25.91601 c -0.0174,0.001 -0.063,0.0434 -0.14453,0.13672 -0.22522,0.2578 -0.42769,0.53556 -0.62695,0.81446 0.0306,0.0701 0.0602,0.14043 0.0898,0.21093 0.4082,-0.61357 0.74535,-1.16701 0.68164,-1.16211 z"
       style="fill:#83dcf6;fill-opacity:1;stroke-width:0.72259;stroke-miterlimit:4;stroke-dasharray:none"
       id="rect78" />
    <rect
       transform="rotate(60)"
       y="-29.513016"
       x="121.0253"
       height="23.890738"
       width="22.854534"
       id="rect967"
       style="fill:none;fill-opacity:0.23101;stroke:none;stroke-width:0.219;stroke-miterlimit:4;stroke-dasharray:none;stroke-opacity:0.115937" />
    <rect
       transform="rotate(50)"
       y="-11.625148"
       x="137.87607"
       height="24.180908"
       width="24.072487"
       id="rect969"
       style="fill:none;fill-opacity:0.23101;stroke:none;stroke-width:0.219;stroke-miterlimit:4;stroke-dasharray:none;stroke-opacity:0.115937" />
    <path
       id="path977"
       d="m 92.524879,90.994643 16.145191,9.202337 -9.28102,16.49539 -6.884629,-3.73664"
       style="fill:none;stroke:none;stroke-width:0.264583px;stroke-linecap:butt;stroke-linejoin:miter;stroke-opacity:0.987932" />
    <path
       id="path979"
       d="m 92.524877,90.994644 -2.901672,5.331431"
       style="fill:none;stroke:none;stroke-width:0.264583px;stroke-linecap:butt;stroke-linejoin:miter;stroke-opacity:1" />
    <path
       id="path981"
       d="m 90.640911,103.96007 -5.364538,-10.342132 -15.73941,9.193812 8.279417,15.83604 16.256711,-9.17304 -1.863657,-2.92193"
       style="fill:none;stroke:none;stroke-width:0.264583px;stroke-linecap:butt;stroke-linejoin:miter;stroke-opacity:1" />
    <path
       id="path983"
       d="m 97.6653,101.76314 -14.782577,12.42587 0.833811,1.07685"
       style="fill:none;stroke:none;stroke-width:0.264583px;stroke-linecap:butt;stroke-linejoin:miter;stroke-opacity:1" />
    <path
       id="path985"
       d="m 97.6653,101.76314 6.26461,7.40804"
       style="fill:none;stroke:none;stroke-width:0.264583px;stroke-linecap:butt;stroke-linejoin:miter;stroke-opacity:1" />
    <path
       id="path987"
       d="m 105.91972,111.53079 3.56564,5.01614 -14.460511,12.13543 -9.324339,-10.70296"
       style="fill:none;stroke:none;stroke-width:0.264583px;stroke-linecap:butt;stroke-linejoin:miter;stroke-opacity:1" />
    <path
       id="path989"
       d="m 88.04774,99.207649 -4.919675,8.215541 1.974958,1.23943"
       style="fill:none;stroke:none;stroke-width:0.264583px;stroke-linecap:butt;stroke-linejoin:miter;stroke-opacity:1" />
    <path
       id="path991"
       d="m 87.551105,110.5723 2.081311,0.86422"
       style="fill:none;stroke:none;stroke-width:0.264583px;stroke-linecap:butt;stroke-linejoin:miter;stroke-opacity:1" />
    <path
       id="path993"
       d="m 71.393238,112.08852 c -2.950843,-5.12836 -5.446278,-9.48899 -5.545411,-9.69024 -0.179774,-0.36499 -0.154308,-0.3809 9.948144,-6.215149 5.570611,-3.217072 10.151139,-5.8567 10.178956,-5.865841 0.02783,-0.0091 0.477763,0.727206 0.999886,1.636336 l 0.949315,1.652962 -0.58062,1.093485 c -0.319336,0.601421 -0.616833,1.072584 -0.66119,1.046974 -0.04431,-0.02559 -0.337356,-0.548299 -0.65121,-1.161585 -0.313854,-0.613291 -0.613412,-1.138805 -0.665685,-1.167811 -0.173607,-0.09631 -16.067214,9.268099 -16.018806,9.438189 0.08645,0.30374 8.308207,15.96126 8.407347,16.01097 0.05328,0.0268 0.90834,-0.4163 1.899835,-0.98463 l 1.802697,-1.03334 0.51495,0.64761 c 0.283219,0.35619 0.524014,0.68145 0.535117,0.72276 0.02927,0.10898 -5.57467,3.32552 -5.668937,3.25386 -0.04359,-0.0332 -2.493547,-4.25616 -5.444388,-9.38455 z"
       style="fill:#de8787;fill-opacity:1;stroke:none;stroke-width:0.125143;stroke-miterlimit:4;stroke-dasharray:none;stroke-opacity:0.987932" />
    <path
       id="path995"
       d="m 88.699752,113.1963 c 0.249144,0.10526 0.661841,0.34296 0.917045,0.52831 0.255243,0.18526 0.05144,0.099 -0.452959,-0.19147 -0.504491,-0.29036 -0.713312,-0.44198 -0.464169,-0.3367 z"
       style="fill:#de8787;fill-opacity:1;stroke:none;stroke-width:0.125143;stroke-miterlimit:4;stroke-dasharray:none;stroke-opacity:0.987932" />
    <path
       id="path997"
       d="m 82.228947,117.29603 c -0.240852,-0.29452 -0.384588,-0.58983 -0.319475,-0.65618 0.06507,-0.0663 1.501021,-0.89843 3.190898,-1.84907 l 3.072517,-1.72843 0.829114,0.48906 c 0.455968,0.26908 0.821811,0.50173 0.812861,0.51723 -0.1127,0.19523 -6.830627,3.90387 -6.964154,3.84459 -0.101014,-0.0451 -0.381111,-0.32246 -0.621722,-0.61725 z"
       style="fill:#de8787;fill-opacity:1;stroke:none;stroke-width:0.125143;stroke-miterlimit:4;stroke-dasharray:none;stroke-opacity:0.987932" />
    <path
       id="path999"
       d="m 88.599641,112.84727 c 0.01627,-0.0279 1.318528,-0.77503 2.894043,-1.65991 1.575516,-0.88488 2.853679,-1.63596 2.840369,-1.66907 -0.01333,-0.033 -0.432695,-0.71339 -0.931947,-1.51175 -0.499256,-0.79835 -0.918138,-1.47681 -0.930851,-1.50766 -0.04292,-0.10414 1.831256,-1.63865 1.931034,-1.58106 0.109797,0.0634 2.657419,4.46063 2.742312,4.7333 0.02956,0.0949 -1.510361,1.07533 -3.434391,2.18657 l -3.487973,2.01446 -0.826036,-0.4769 c -0.454322,-0.26231 -0.812786,-0.49988 -0.796586,-0.52793 z"
       style="fill:#de8787;fill-opacity:1;stroke:none;stroke-width:0.125143;stroke-miterlimit:4;stroke-dasharray:none;stroke-opacity:0.987932" />
    <path
       id="path1001"
       d="m 88.804827,99.943076 -1.898645,-3.666215 0.621799,-1.164707 0.621798,-1.164706 0.3669,0.661756 c 0.201796,0.363967 1.236743,2.162778 2.299885,3.997357 l 1.932977,3.335599 -0.991408,0.83042 c -0.545271,0.45674 -1.005643,0.83185 -1.023032,0.83356 -0.01752,0.002 -0.886019,-1.64665 -1.930272,-3.663064 z"
       style="fill:#de8787;fill-opacity:1;stroke:none;stroke-width:0.125143;stroke-miterlimit:4;stroke-dasharray:none;stroke-opacity:0.987932" />
    <path
       id="path1003"
       d="m 105.77945,107.73505 -0.61501,-0.74908 1.86571,-3.38267 c 1.02613,-1.86048 1.84815,-3.42033 1.8267,-3.46635 -0.0214,-0.046 -3.70971,-2.162206 -8.19618,-4.70261 l -8.157181,-4.618956 -1.4285,2.534333 -1.4285,2.534336 -0.450026,-0.792532 c -0.247518,-0.435902 -0.545182,-0.9339 -0.661474,-1.10667 -0.210083,-0.312109 -0.200352,-0.333336 1.515114,-3.304609 l 1.726563,-2.990494 10.081984,5.820832 10.08197,5.82084 -2.68363,4.64818 c -1.47599,2.55651 -2.72385,4.61587 -2.77308,4.57634 -0.0493,-0.0396 -0.36622,-0.40892 -0.70446,-0.82089 z"
       style="fill:#de8787;fill-opacity:1;stroke:none;stroke-width:0.125143;stroke-miterlimit:4;stroke-dasharray:none;stroke-opacity:0.987932" />
    <path
       id="path1005"
       d="m 83.309998,102.35445 c 1.787828,-3.096613 3.278214,-5.614257 3.311981,-5.594763 0.03379,0.01943 0.32552,0.551573 0.648348,1.182399 l 0.586962,1.146962 -2.502723,4.206422 -2.502728,4.20643 0.955908,0.55191 c 0.52575,0.30352 0.941913,0.57613 0.924861,0.60567 -0.01717,0.0297 -0.347212,0.31036 -0.733617,0.62393 l -0.702542,0.5701 -1.618514,-0.93445 -1.618511,-0.93444 z"
       style="fill:#de8787;fill-opacity:1;stroke:none;stroke-width:0.125143;stroke-miterlimit:4;stroke-dasharray:none;stroke-opacity:0.987932" />
    <path
       id="path1007"
       d="m 93.831289,103.18674 c -0.306269,-0.5474 -0.542365,-1.06607 -0.52466,-1.15259 0.01769,-0.0865 0.972976,-0.94691 2.122818,-1.91196 l 2.090626,-1.754631 0.631067,0.764951 c 0.34708,0.420725 1.94665,2.33032 3.55458,4.24354 l 2.92352,3.47858 -0.47931,0.8302 -0.47932,0.83017 -1.27318,-1.49892 c -0.70026,-0.82443 -2.00568,-2.36188 -2.90093,-3.41661 -0.89526,-1.05472 -1.685809,-1.9512 -1.756781,-1.99217 -0.07096,-0.041 -0.850294,0.53038 -1.731824,1.26966 -0.881534,0.7393 -1.606603,1.33537 -1.611269,1.32461 -0.0047,-0.011 -0.259069,-0.46742 -0.565337,-1.01483 z"
       style="fill:#de8787;fill-opacity:1;stroke:none;stroke-width:0.125143;stroke-miterlimit:4;stroke-dasharray:none;stroke-opacity:0.987932" />
    <path
       id="path1009"
       d="m 90.710677,114.02894 c 0.02506,-0.0434 0.366083,-0.26889 0.75784,-0.50112 0.700835,-0.41545 0.725598,-0.41629 1.540173,-0.0531 0.455318,0.20307 1.723851,0.88649 2.81894,1.51875 1.095098,0.63224 2.38039,1.32315 2.85625,1.5353 l 0.86517,0.38578 2.66364,-4.8079 c 1.46501,-2.64432 2.71124,-4.78041 2.76944,-4.74682 0.0583,0.0336 0.39779,0.40571 0.75469,0.82696 l 0.64891,0.76594 -3.08118,5.33675 -3.08117,5.33676 -4.779126,-2.75922 c -2.628514,-1.51757 -4.758618,-2.79473 -4.733573,-2.83812 z"
       style="fill:#de8787;fill-opacity:1;stroke:none;stroke-width:0.125143;stroke-miterlimit:4;stroke-dasharray:none;stroke-opacity:0.987932" />
    <path
       id="path1011"
       d="m 84.269139,109.49859 c 0.36888,-0.29113 0.723575,-0.57735 0.78823,-0.63603 0.364595,-0.33098 7.75512,-6.53174 7.810026,-6.55273 0.168398,-0.0644 1.234298,2.05752 1.106964,2.20367 -0.07796,0.0895 -1.924766,1.66686 -4.104003,3.50529 l -3.962252,3.34259 -1.154815,-0.66674 -1.154823,-0.66672 z"
       style="fill:#de8787;fill-opacity:1;stroke:none;stroke-width:0.125143;stroke-miterlimit:4;stroke-dasharray:none;stroke-opacity:0.987932" />
    <path
       id="path1013"
       d="m 80.289403,114.95938 -1.045578,-1.24804 2.062587,-1.73338 2.062591,-1.73338 1.14627,0.66181 1.146275,0.66182 -1.320421,1.11438 c -0.726231,0.61291 -1.419441,1.19232 -1.540472,1.2876 -0.171913,0.13532 -0.129844,0.28788 0.192309,0.69737 0.226775,0.28831 0.401489,0.54299 0.388195,0.56602 -0.06831,0.11832 -1.900692,1.07693 -1.967733,1.02941 -0.04307,-0.0305 -0.54895,-0.6172 -1.12402,-1.30361 z"
       style="fill:#de8787;fill-opacity:1;stroke:none;stroke-width:0.125143;stroke-miterlimit:4;stroke-dasharray:none;stroke-opacity:0.987932" />
    <path
       id="path1017"
       d="m 85.700509,117.9794 v 0 0 0 0 l -2.337575,0.94301 z"
       style="fill:none;stroke:none;stroke-width:0.264583px;stroke-linecap:butt;stroke-linejoin:miter;stroke-opacity:1" />
    <path
       id="path1019"
       d="m 83.362934,118.92241 11.1173,13.20806 18.523636,-15.54322 -6.61815,-7.63446 -0.46595,2.57802"
       style="fill:none;stroke:none;stroke-width:0.264583px;stroke-linecap:butt;stroke-linejoin:miter;stroke-opacity:1" />
    <path
       id="path1021"
       d="m 89.064146,125.41775 -5.397329,-6.41726 0.67233,-0.27081 c 0.369775,-0.14898 0.818067,-0.32868 0.996206,-0.39945 l 0.323877,-0.12869 4.622882,5.30856 c 2.542583,2.91971 4.656818,5.3276 4.698299,5.35087 0.05712,0.0321 14.327719,-11.85839 14.674509,-12.22698 0.0398,-0.0426 -0.71782,-1.18173 -1.74034,-2.61673 l -1.81105,-2.54159 0.18363,-0.97463 c 0.10063,-0.53612 0.21507,-0.98305 0.25344,-0.99333 0.0702,-0.0185 6.07659,6.8433 6.13206,7.00576 0.0271,0.0795 -17.960008,15.25612 -18.135428,15.30177 -0.04176,0.0104 -2.504576,-2.86805 -5.473112,-6.39754 z"
       style="fill:#de8787;fill-opacity:1;stroke:none;stroke-width:0.0715687;stroke-miterlimit:4;stroke-dasharray:none;stroke-opacity:0.987932" />
    <path
       id="path1023"
       d="M 87.551103,110.5723 Z"
       style="fill:none;stroke:none;stroke-width:0.264583px;stroke-linecap:butt;stroke-linejoin:miter;stroke-opacity:1" />
  </g>
  <g
     inkscape:label="Layer 2"
     id="layer2"
     inkscape:groupmode="layer">
    <path
       id="path935"
       d="M 95.628779,51.603042 C 93.336721,40.386217 93.033998,42.202624 93.033998,42.202624 l 2.825401,-9.990235 6.962621,-7.265625 10.49437,-3.587402 6.10491,6.856933 7.16443,0.272462 2.87586,-6.675294 3.78403,-1.362305 -1.4127,8.219238 -2.52269,3.723635 -7.61852,0.181639 -9.13212,-5.267578 -6.60944,1.816406 -6.861711,4.404786 -0.85771,7.311035 2.172441,11.099122 z"
       style="fill:#f1dcf6;stroke:#ffe4ff;stroke-width:0.264583px;stroke-linecap:butt;stroke-linejoin:miter;stroke-opacity:1;fill-opacity:1" />
    <path
       id="path945"
       d="m 95.628779,51.603042 9.235611,6.553096 -0.0279,-6.853327 1.60559,0.301778 -4.40903,-1.951289 -1.62988,2.286141 z"
       style="fill:#f1dcf6;stroke:#ffd7ff;stroke-width:0.264583px;stroke-linecap:butt;stroke-linejoin:miter;stroke-opacity:1;fill-opacity:1" />
    <path
       id="path947"
       d="M 104.43962,49.933888 Z"
       style="fill:none;stroke:#000000;stroke-width:0.264583px;stroke-linecap:butt;stroke-linejoin:miter;stroke-opacity:1" />
    <path
       inkscape:transform-center-y="-0.67879515"
       inkscape:transform-center-x="0.12526864"
       sodipodi:nodetypes="cccccccc"
       id="path949"
       d="m 105.95015,29.124497 v 0 l 0.82772,7.475963 0.79864,7.598791 -2.73819,-0.924176 -0.57046,-5.818894 -5.179421,-3.926897 z"
       style="fill:#f1ccf6;fill-opacity:1;stroke:#ffb9ff;stroke-width:0.264583px;stroke-linecap:butt;stroke-linejoin:miter;stroke-opacity:1" />
  </g>
  <g
     inkscape:label="logo"
     id="layer3"
     inkscape:groupmode="layer">
    <rect
       transform="rotate(30)"
       y="29.809574"
       x="123.1438"
       height="23.794014"
       width="23.678444"
       id="rect965"
       style="fill:none;fill-opacity:0.23101;stroke:none;stroke-width:0.219;stroke-miterlimit:4;stroke-dasharray:none;stroke-opacity:0.115937" />
    <path
       id="path1129"
       d="m 87.551103,110.5723 -1.017831,1.36077 1.019003,0.54569 2.080141,-1.04224"
       style="fill:none;stroke:none;stroke-width:0.264583px;stroke-linecap:butt;stroke-linejoin:miter;stroke-opacity:1" />
    <path
       transform="scale(0.26458333)"
       id="path1131"
       d="m 329.53899,423.6488 c -0.74293,-0.43156 -1.35465,-0.84932 -1.35937,-0.92836 -0.011,-0.18372 2.82439,-4.01781 2.97676,-4.0253 0.0628,-0.003 1.48111,0.5636 3.15183,1.25929 l 3.03768,1.2649 -3.22805,1.60706 -3.22805,1.60705 z"
       style="fill:#de8787;fill-opacity:1;stroke:none;stroke-width:0.126176;stroke-miterlimit:4;stroke-dasharray:none;stroke-opacity:0.00035347" />
    <path
       transform="scale(0.26458333)"
       id="path1133"
       d=""
       style="fill:#ffaaaa;fill-opacity:1;stroke:none;stroke-width:0.953897;stroke-miterlimit:4;stroke-dasharray:none;stroke-opacity:0.000353465" />
    <path
       transform="scale(0.26458333)"
       id="path1135"
       d="m 273.36209,428.53486 c -9.19075,-15.9524 -18.41183,-32.01852 -20.49129,-35.70249 l -3.78083,-6.69813 13.57661,-8.00641 c 7.46714,-4.40353 24.45861,-14.25493 37.75883,-21.89201 l 24.18221,-13.8856 3.18835,5.12254 c 3.59128,5.76991 3.74727,6.85401 1.55555,10.81058 l -1.55112,2.80014 -1.85718,-3.59139 c -3.31592,-6.41229 0.19316,-7.85437 -41.85659,17.20122 -11.53223,6.87155 -21.29405,13.02179 -21.69295,13.66721 -0.65315,1.05683 28.15573,57.70045 30.75533,60.4707 0.70982,0.75641 3.38601,-0.12234 7.78773,-2.55719 6.40951,-3.54547 6.78903,-3.61819 8.57628,-1.6433 1.76264,1.9477 1.37813,2.34777 -6.69719,6.96811 -4.71195,2.69597 -9.50681,5.13546 -10.65525,5.42107 -1.68855,0.41995 -5.28523,-5.03004 -18.79849,-28.48505 z"
       style="fill:#f1dcf6;fill-opacity:1;stroke:none;stroke-width:0.953897;stroke-miterlimit:4;stroke-dasharray:none;stroke-opacity:0.00035347" />
    <path
       transform="scale(0.26458333)"
       id="path1137"
       d="m 308.72187,411.34088 c -2.8122,-1.6479 -5.1131,-3.29248 -5.1131,-3.65463 0,-0.36215 4.89041,-9.08452 10.86756,-19.38305 12.52635,-21.58266 12.41885,-21.40458 12.92098,-21.40458 0.20886,0 1.22111,1.76033 2.24944,3.91185 l 1.86969,3.91184 -9.35826,15.71584 c -10.43111,17.51752 -10.04189,15.91755 -4.60189,18.9173 l 2.21646,1.22221 -2.28422,1.91162 c -1.25632,1.0514 -2.59232,1.89726 -2.96889,1.8797 -0.37657,-0.0176 -2.98557,-1.3802 -5.79777,-3.0281 z"
       style="fill:#f1dcf6;fill-opacity:1;stroke:none;stroke-width:0.546089;stroke-miterlimit:4;stroke-dasharray:none;stroke-opacity:0.000353465" />
    <path
       transform="scale(0.26458333)"
       id="path1139"
       d="m 335.82916,377.29161 -7.02381,-13.36188 2.06859,-3.79359 c 1.13772,-2.08647 2.22272,-3.78242 2.41111,-3.76879 0.42506,0.0308 16.11935,27.47626 16.32775,28.55326 0.13007,0.67219 -4.83897,5.08867 -6.26248,5.56608 -0.27354,0.0917 -3.65807,-5.84605 -7.52116,-13.19508 z"
       style="fill:#f1dcf6;fill-opacity:1;stroke:none;stroke-width:0.546089;stroke-miterlimit:4;stroke-dasharray:none;stroke-opacity:0.000353465" />
    <path
       transform="scale(0.26458333)"
       id="path1141"
       d="m 400.31771,407.33449 c -1.05836,-1.25022 -1.92428,-2.62818 -1.92428,-3.06214 0,-0.43396 3.01837,-6.31068 6.70749,-13.05937 3.68913,-6.74869 6.7075,-12.43435 6.7075,-12.63479 0,-0.20045 -4.08222,-2.71778 -9.07161,-5.59408 -16.22297,-9.35228 -51.26774,-29.10255 -52.37149,-29.51514 -0.8402,-0.31407 -2.2106,1.62256 -6.26121,8.84824 -2.85208,5.08767 -5.36978,9.03958 -5.5949,8.78203 -0.22511,-0.25755 -1.24804,-1.99143 -2.27317,-3.85306 l -1.86387,-3.38478 6.17331,-10.79993 c 3.39532,-5.93996 6.23209,-10.88482 6.30394,-10.98858 0.17844,-0.25771 73.6478,42.0858 74.72664,43.06813 0.69456,0.63243 -0.88772,3.78612 -8.18681,16.31733 -4.97627,8.54337 -9.52015,16.12196 -10.09751,16.84132 -1.02871,1.28171 -1.08832,1.26237 -2.97403,-0.96518 z"
       style="fill:#f1dcf6;fill-opacity:1;stroke:none;stroke-width:0.546089;stroke-miterlimit:4;stroke-dasharray:none;stroke-opacity:0.000353465" />
    <path
       transform="scale(0.26458333)"
       id="path1143"
       d="m 388.24823,405.32929 c -1.78111,-2.08647 -6.59749,-7.72737 -10.70307,-12.53532 -4.10558,-4.80796 -7.86075,-8.74174 -8.34483,-8.74174 -0.48408,0 -3.48107,2.0868 -6.65998,4.63735 l -5.77982,4.63735 -1.80398,-3.48278 c -0.99219,-1.91553 -1.81798,-3.68732 -1.8351,-3.9373 -0.0514,-0.75035 15.09459,-13.42616 15.63411,-13.08433 0.66347,0.42037 24.47374,28.89122 25.39348,30.36395 0.55945,0.89582 0.39149,1.67719 -0.76155,3.54285 -0.81362,1.31646 -1.57416,2.39356 -1.69009,2.39356 -0.11594,0 -1.66806,-1.70712 -3.44917,-3.79359 z"
       style="fill:#f1dcf6;fill-opacity:1;stroke:none;stroke-width:0.546089;stroke-miterlimit:4;stroke-dasharray:none;stroke-opacity:0.000353465" />
    <path
       transform="scale(0.26458333)"
       id="path1145"
       d="m 320.56221,418.10226 -3.82881,-2.19648 16.95882,-14.27739 c 9.32736,-7.85257 17.16003,-14.27739 17.40593,-14.27739 0.79277,0 3.50328,6.46611 3.1244,7.45347 -0.3158,0.82295 -29.04376,25.56871 -29.62013,25.51425 -0.11627,-0.011 -1.93436,-1.00839 -4.04021,-2.21646 z"
       style="fill:#f1dcf6;fill-opacity:1;stroke:none;stroke-width:0.546089;stroke-miterlimit:4;stroke-dasharray:none;stroke-opacity:0.000353465" />
    <path
       transform="scale(0.26458333)"
       id="path1147"
       d="m 303.92991,434.42685 c -4.33121,-5.10539 -4.87703,-3.77473 4.93378,-12.02821 l 6.24455,-5.25331 3.80887,2.09149 c 2.09488,1.15033 3.8124,2.26681 3.8167,2.48108 0.004,0.21426 -2.36728,2.37771 -5.2702,4.80765 -2.90292,2.42995 -5.27803,4.66394 -5.27803,4.96443 0,0.30048 0.60637,1.31721 1.34749,2.2594 l 1.3475,1.71306 -3.30483,1.67468 c -1.81765,0.92108 -3.44454,1.67468 -3.61532,1.67468 -0.17077,0 -1.9845,-1.97323 -4.03051,-4.38495 z"
       style="fill:#f1dcf6;fill-opacity:1;stroke:none;stroke-width:0.546089;stroke-miterlimit:4;stroke-dasharray:none;stroke-opacity:0.000353465" />
    <path
       transform="scale(0.26458333)"
       id="path1149"
       d=""
       style="fill:#f1dcf6;fill-opacity:1;stroke:none;stroke-width:0.546089;stroke-miterlimit:4;stroke-dasharray:none;stroke-opacity:0.000353465" />
    <path
       transform="scale(0.26458333)"
       id="path1151"
       d=""
       style="fill:#f1dcf6;fill-opacity:1;stroke:none;stroke-width:0.546089;stroke-miterlimit:4;stroke-dasharray:none;stroke-opacity:0.000353465" />
    <path
       transform="scale(0.26458333)"
       id="path1153"
       d=""
       style="fill:#f1dcf6;fill-opacity:1;stroke:none;stroke-width:0.546089;stroke-miterlimit:4;stroke-dasharray:none;stroke-opacity:0.000353465" />
    <path
       transform="scale(0.26458333)"
       id="path1155"
       d="m 311.54853,443.63897 c -0.75778,-0.96336 -1.2774,-2.05272 -1.15471,-2.42079 0.12269,-0.36808 5.28075,-3.53923 11.46235,-7.04699 l 11.23927,-6.37775 2.36752,1.21461 c 1.30213,0.66804 2.53558,1.48654 2.741,1.81891 0.33756,0.54619 -13.29503,8.56114 -21.85443,12.84879 l -3.42322,1.71479 z"
       style="fill:#f1dcf6;fill-opacity:1;stroke:none;stroke-width:0.546089;stroke-miterlimit:4;stroke-dasharray:none;stroke-opacity:0.000353465" />
    <path
       transform="scale(0.26458333)"
       id="path1157"
       d=""
       style="fill:#f1dcf6;fill-opacity:1;stroke:none;stroke-width:0.546089;stroke-miterlimit:4;stroke-dasharray:none;stroke-opacity:0.000353465" />
    <path
       transform="scale(0.26458333)"
       id="path1159"
       d="m 329.77554,423.30387 c -1.08435,-0.7929 -1.0625,-0.94549 0.35907,-2.50672 1.49732,-1.64441 1.54103,-1.65043 4.03657,-0.55585 l 2.52286,1.10657 -2.88193,1.40014 c -2.40518,1.16853 -3.07293,1.26048 -4.03657,0.55586 z"
       style="fill:#f1dcf6;fill-opacity:1;stroke:none;stroke-width:0.546089;stroke-miterlimit:4;stroke-dasharray:none;stroke-opacity:0.000353465" />
    <path
       transform="scale(0.26458333)"
       id="path1161"
       d="m 337.80578,428.04584 -2.41934,-1.48822 8.35713,-4.75123 c 4.59641,-2.61319 9.46919,-5.42943 10.82839,-6.25832 l 2.47128,-1.50708 -3.28146,-5.26301 c -1.8048,-2.89466 -3.28798,-5.61099 -3.29596,-6.0363 -0.015,-0.79755 5.11281,-5.49438 5.99851,-5.49438 0.63059,0 9.82107,15.86598 9.82107,16.9546 0,1.03827 -23.91123,15.41604 -25.5327,15.35276 -0.29017,-0.0113 -1.61628,-0.69029 -2.94692,-1.50882 z"
       style="fill:#f1dcf6;fill-opacity:1;stroke:none;stroke-width:0.546089;stroke-miterlimit:4;stroke-dasharray:none;stroke-opacity:0.000353465" />
    <path
       transform="scale(0.26458333)"
       id="path1163"
       d="m 368.57563,445.85685 c -18.55615,-10.81769 -24.72186,-14.54276 -24.72186,-14.93594 0,-0.98408 4.14925,-2.76034 5.5984,-2.39663 0.85722,0.21515 6.99193,3.36008 13.6327,6.98873 6.64077,3.62866 12.37846,6.59726 12.75042,6.59689 0.37196,-3.7e-4 1.53949,-1.55904 2.59451,-3.46371 9.65796,-17.43594 17.18705,-30.66525 17.86408,-31.3888 0.67137,-0.71752 1.19368,-0.42197 2.88901,1.63476 1.13821,1.38085 2.05618,2.8141 2.03993,3.185 -0.0473,1.08079 -22.08305,38.83864 -22.76954,39.01528 -0.3422,0.0881 -4.78714,-2.26796 -9.87765,-5.23558 z"
       style="fill:#f1dcf6;fill-opacity:1;stroke:none;stroke-width:0.546089;stroke-miterlimit:4;stroke-dasharray:none;stroke-opacity:0.000353465" />
    <path
       transform="scale(0.26458333)"
       id="path1165"
       d="m 347.99989,486.81428 c -19.1743,-22.48529 -30.53628,-36.13767 -30.53628,-36.69193 0,-0.31637 1.36706,-1.0973 3.03791,-1.73541 3.03419,-1.15876 3.03973,-1.15827 4.51955,0.40519 0.8149,0.86095 8.66945,9.80405 17.45455,19.87354 8.78511,10.06949 16.2627,18.30817 16.61689,18.30817 1.37961,0 55.35493,-45.3056 55.35493,-46.46362 0,-0.45115 -2.93695,-4.97137 -6.52656,-10.04491 l -6.52655,-9.22463 0.672,-3.39867 0.67199,-3.39867 2.88864,3.21286 c 7.94322,8.83477 19.37654,22.16487 19.37654,22.59109 0,0.66548 -64.62662,55.47146 -66.96991,56.79318 -0.62144,0.35052 -3.62377,-2.70941 -10.0337,-10.22619 z"
       style="fill:#f1dcf6;fill-opacity:1;stroke:none;stroke-width:0.546089;stroke-miterlimit:4;stroke-dasharray:none;stroke-opacity:0.000353465" />
  </g>
</svg>
